<?xml version="1.0" encoding="utf-8"?>
<!-- Generator: Adobe Illustrator 27.5.0, SVG Export Plug-In . SVG Version: 6.00 Build 0)  -->
<svg version="1.1" id="Camada_1" xmlns="http://www.w3.org/2000/svg" xmlns:xlink="http://www.w3.org/1999/xlink" x="0px" y="0px"
	 viewBox="0 0 1000 1000" style="enable-background:new 0 0 1000 1000;" xml:space="preserve">
<g>
	<path style="fill:#1F293F;" d="M242.533,685.837v-7.896h11.404v-71.934h-11.279v-7.896h68.55v21.43h-7.77l-0.25-13.659H262.46
		v32.207h40.228v8.021H262.46v31.831h11.905v7.896H242.533z"/>
	<path style="fill:#1F293F;" d="M338.783,623.678v54.766h10.903v7.393h-29.952v-7.393h10.903v-47.371h-10.652v-7.395H338.783z
		 M329.008,604.379c0-3.885,3.007-5.64,5.765-5.64c2.757,0,5.765,1.755,5.765,5.64c0,4.01-3.008,5.639-5.765,5.639
		C332.016,610.018,329.008,608.264,329.008,604.379z"/>
	<path style="fill:#1F293F;" d="M376.004,678.443h10.276v7.393h-29.325v-7.393h11.028v-47.246h-10.778v-7.269h18.171l0.376,11.153
		c5.514-8.897,13.535-12.281,22.057-12.281c17.545,0,26.818,10.276,26.818,28.197v27.445h11.028v7.393h-28.824v-7.393h9.65v-27.32
		c0-14.036-6.141-20.678-19.299-20.678c-12.156,0-21.179,8.897-21.179,21.555V678.443z"/>
	<path style="fill:#1F293F;" d="M517.618,678.568v7.268h-18.171c0-1.629-0.752-9.9-0.752-11.655
		c-4.888,9.275-15.039,13.034-24.187,12.908c-17.545,0-31.581-12.156-31.581-32.207c0-19.801,14.036-31.957,31.581-31.957
		c9.775,0,19.926,4.387,24.313,13.409l0.125-12.531h18.547v7.519h-10.777v47.246H517.618z M450.948,655.134
		c0,15.038,10.652,24.438,23.936,24.438c15.54,0,24.062-11.655,24.312-24.061c0.251-12.783-8.146-24.814-24.563-24.814
		C461.475,630.696,450.948,640.221,450.948,655.134z"/>
	<path style="fill:#1F293F;" d="M545.315,678.443h10.276v7.393h-29.325v-7.393h11.028v-47.246h-10.777v-7.269h18.172l0.376,11.153
		c5.514-8.897,13.534-12.281,22.056-12.281c17.545,0,26.819,10.276,26.819,28.197v27.445h11.028v7.393h-28.824v-7.393h9.649v-27.32
		c0-14.036-6.141-20.678-19.299-20.678c-12.156,0-21.18,8.897-21.18,21.555V678.443z"/>
	<path style="fill:#1F293F;" d="M668.258,677.315c-6.392,6.391-14.788,9.398-23.059,9.398c-18.172,0-32.96-11.529-32.96-31.831
		c0-21.054,14.788-31.957,32.584-31.957c7.394,0,14.662,2.256,21.054,6.141l-0.251,14.913h-7.269v-10.651
		c-3.885-2.131-9.148-2.883-13.534-2.883c-13.785,0-24.438,9.023-24.438,24.438c0,15.414,11.028,24.061,24.813,24.061
		c6.391,0,13.158-2.256,17.795-7.017L668.258,677.315z"/>
	<path style="fill:#1F293F;" d="M737.06,675.31c-6.141,7.645-16.919,11.404-26.693,11.404c-18.297,0-31.957-12.156-31.957-31.956
		c0-18.799,13.284-31.957,31.581-31.957c18.171,0,33.335,10.902,30.954,35.34h-54.39c1.254,13.535,11.655,21.055,23.937,21.055
		c7.644,0,16.793-3.134,21.18-8.772L737.06,675.31z M733.301,651.374c-0.251-13.785-9.399-21.18-23.185-21.18
		c-12.03,0-22.057,7.52-23.561,21.18H733.301z"/>
</g>
<g>
	<path style="fill:#1F293F;" d="M284.048,728.711v1.597h-8.02v-1.597h3.092v-9.617h-14.782v9.617h3.126v1.597h-8.02v-1.597h3.194
		v-20.593h-3.161v-1.598h7.918v1.598h-3.059v9.412h14.782v-9.412h-3.058v-1.598h7.917v1.598h-3.126v20.593H284.048z"/>
	<path style="fill:#1F293F;" d="M302.293,727.317c-1.631,2.141-4.587,3.194-7.272,3.194c-4.689,0-8.529-3.229-8.529-8.598
		c0-5.097,3.636-8.665,8.461-8.665c4.723,0,9.005,2.82,8.359,9.379h-15.189c0.34,4.214,3.432,6.354,6.932,6.354
		c2.208,0,4.825-0.951,6.082-2.616L302.293,727.317z M301.818,721.2c0.068-4.18-2.65-6.456-6.83-6.456
		c-3.602,0-6.491,2.345-6.864,6.456H301.818z"/>
	<path style="fill:#1F293F;" d="M308.952,715.016h-3.092v-1.495h4.52l0.102,3.297c0.952-2.175,3.229-3.467,5.709-3.467
		c1.223,0,2.413,0.307,3.5,0.952l-0.68,1.359c-0.951-0.544-1.903-0.816-2.888-0.816c-3.33,0.068-5.539,2.549-5.539,5.675v8.326
		h3.024v1.461h-7.612v-1.461h2.956V715.016z"/>
	<path style="fill:#1F293F;" d="M336.68,727.317c-1.631,2.141-4.587,3.194-7.272,3.194c-4.689,0-8.529-3.229-8.529-8.598
		c0-5.097,3.636-8.665,8.461-8.665c4.723,0,9.005,2.82,8.359,9.379H322.51c0.34,4.214,3.432,6.354,6.932,6.354
		c2.208,0,4.825-0.951,6.082-2.616L336.68,727.317z M336.204,721.2c0.068-4.18-2.65-6.456-6.83-6.456
		c-3.602,0-6.491,2.345-6.864,6.456H336.204z"/>
	<path style="fill:#1F293F;" d="M354.076,713.487v15.291h3.194v1.529h-7.952v-1.529h3.194v-13.796h-3.092v-1.495H354.076z
		 M352.003,708.016c0-0.883,0.68-1.223,1.325-1.223c0.578,0,1.257,0.34,1.257,1.257c0,0.918-0.68,1.224-1.325,1.224
		C352.683,709.273,352.003,708.968,352.003,708.016z"/>
	<path style="fill:#1F293F;" d="M372.56,718.313h-1.427l-0.068-2.719c-1.257-0.646-3.024-0.985-4.52-0.985
		c-2.854-0.034-5.029,0.884-5.029,3.194c0,2.209,2.48,2.685,5.131,3.092c2.888,0.476,7,0.952,6.932,4.894
		c-0.068,3.636-3.738,4.825-7,4.825c-2.685,0-4.451-0.646-6.762-1.936v-3.738h1.495l0.034,2.753c1.529,0.85,3.534,1.393,5.301,1.393
		c2.175,0,5.301-0.646,5.335-3.364c0-2.446-2.617-2.956-5.505-3.363c-2.821-0.408-6.593-1.088-6.593-4.554
		c0-3.33,3.194-4.655,6.626-4.655c2.107-0.034,4.316,0.543,6.117,1.528L372.56,718.313z"/>
	<path style="fill:#1F293F;" d="M389.141,708.458v5.063h5.709v1.394h-5.709v10.228c0,2.276,0.442,3.941,3.092,3.941
		c0.815,0,1.971-0.373,2.787-0.781l0.578,1.325c-1.054,0.544-2.311,0.918-3.364,0.918c-3.534,0-4.689-1.972-4.689-5.403v-10.228
		h-3.568v-1.394h3.568v-4.893L389.141,708.458z"/>
	<path style="fill:#1F293F;" d="M399.81,707.981h-3.127v-1.461h4.69v10.5c1.427-2.786,3.942-3.703,6.321-3.703
		c4.655,0,6.83,2.752,6.83,7.306v8.19h3.058v1.495h-7.408v-1.495h2.753v-8.155c0-3.942-1.835-5.777-5.369-5.845
		c-3.364-0.068-6.185,2.65-6.185,6.15v7.85h2.889v1.495h-7.612v-1.495h3.16V707.981z"/>
	<path style="fill:#1F293F;" d="M435.42,727.317c-1.631,2.141-4.587,3.194-7.272,3.194c-4.689,0-8.529-3.229-8.529-8.598
		c0-5.097,3.636-8.665,8.461-8.665c4.723,0,9.005,2.82,8.359,9.379H421.25c0.34,4.214,3.432,6.354,6.932,6.354
		c2.208,0,4.825-0.951,6.082-2.616L435.42,727.317z M434.944,721.2c0.068-4.18-2.65-6.456-6.83-6.456
		c-3.602,0-6.491,2.345-6.864,6.456H434.944z"/>
	<path style="fill:#1F293F;" d="M463.622,727.997c-1.665,1.699-3.942,2.515-6.151,2.515c-5.029,0-8.801-3.127-8.801-8.564
		c0-5.471,3.772-8.631,8.767-8.631c1.937,0,3.908,0.577,5.573,1.767l-0.068,3.738h-1.461v-2.957
		c-1.189-0.747-2.685-1.053-4.044-1.053c-3.874,0.033-7.17,2.446-7.17,7.136c0,4.418,3.024,7.034,7.238,7.034
		c1.801,0,3.738-0.68,5.063-2.073L463.622,727.997z"/>
	<path style="fill:#1F293F;" d="M475.208,713.215c4.723,0,8.563,3.433,8.563,8.733c0,5.335-3.874,8.598-8.598,8.598
		c-4.689,0-8.563-3.263-8.563-8.598C466.611,716.579,470.484,713.215,475.208,713.215z M475.174,714.71
		c-3.772,0-6.966,2.787-6.966,7.238c0,4.384,3.16,7.068,6.966,7.068c3.84,0,7-2.685,7-7.068
		C482.174,717.497,479.014,714.71,475.174,714.71z"/>
	<path style="fill:#1F293F;" d="M486.59,730.308v-1.495h3.092v-13.797h-3.059v-1.461h4.622l0.034,2.956
		c1.019-2.345,3.296-3.262,5.471-3.262c2.685,0,5.335,1.155,6.219,4.18c1.087-2.923,3.636-4.214,6.218-4.214
		c4.248,0,7.001,2.854,7.001,7.034v8.563h3.058v1.495h-7.51v-1.495h2.854v-8.563c0-3.262-2.106-5.505-5.403-5.505
		c-3.228,0-5.471,2.379-5.471,5.641v8.428h2.854v1.495h-7.34v-1.495h2.923v-8.428c0-3.296-2.175-5.607-5.54-5.607
		c-3.16,0.102-5.301,2.412-5.301,5.607v8.428h2.889v1.495H486.59z"/>
	<path style="fill:#1F293F;" d="M520.331,715.016v-1.495h4.621c0,0.884,0.034,2.923,0.034,3.84c1.359-2.685,4.248-4.043,7-4.043
		c4.69,0.033,8.461,3.296,8.461,8.665c0,5.165-3.67,8.631-8.495,8.631c-2.718,0-5.776-1.325-6.966-4.01v10.433h3.092v1.461h-7.476
		v-1.461h2.753v-22.02H520.331z M538.851,721.982c0-4.588-3.092-7.068-7.034-7.068c-4.554,0-6.762,3.33-6.762,7.17
		c0,3.806,2.48,6.967,6.897,7C535.792,729.084,538.851,726.366,538.851,721.982z"/>
	<path style="fill:#1F293F;" d="M563.927,728.813v1.495h-4.588c0-0.884-0.102-2.685-0.102-3.602
		c-1.359,2.718-4.316,3.907-6.933,3.907c-4.69,0-8.529-3.33-8.529-8.699c0-5.335,3.84-8.631,8.529-8.631
		c2.753,0,5.777,1.325,6.966,3.976v-3.738h4.622v1.529h-3.059v13.763H563.927z M545.373,721.948c0,4.451,3.16,7.136,7,7.136
		c4.553,0,6.898-3.5,6.932-7.067c0.034-3.67-2.311-7.171-7-7.171C548.465,714.846,545.373,717.53,545.373,721.948z"/>
	<path style="fill:#1F293F;" d="M570.788,728.813h2.923v1.495h-7.578v-1.495h3.059v-13.797h-3.059v-1.495h4.588l0.067,3.467
		c1.428-2.719,3.942-3.738,6.287-3.773c4.689,0,7.271,2.753,7.271,7.442v8.155h3.093v1.495h-7.51v-1.495h2.786v-8.122
		c0-3.941-2.039-5.946-5.709-5.946c-3.5,0.034-6.219,2.685-6.219,6.219V728.813z"/>
	<path style="fill:#1F293F;" d="M599.706,715.016v-1.495h7.034v1.495h-2.413l-8.529,20.525c-1.258,3.092-4.078,3.976-7.136,1.902
		l0.747-1.359c1.869,1.326,3.772,1.359,4.825-0.985l2.107-4.961l-6.49-15.122h-2.583v-1.495h7.034v1.495h-2.685l3.67,8.496
		l1.937,4.961l1.869-4.995l3.433-8.462H599.706z"/>
	<path style="fill:#1F293F;" d="M620.5,708.458v5.063h5.708v1.394H620.5v10.228c0,2.276,0.441,3.941,3.092,3.941
		c0.815,0,1.971-0.373,2.786-0.781l0.578,1.325c-1.054,0.544-2.311,0.918-3.364,0.918c-3.534,0-4.69-1.972-4.69-5.403v-10.228
		h-3.568v-1.394h3.568v-4.893L620.5,708.458z"/>
	<path style="fill:#1F293F;" d="M648.941,728.813v1.495h-4.588c0-0.884-0.101-2.685-0.101-3.602
		c-1.359,2.718-4.317,3.907-6.933,3.907c-4.689,0-8.529-3.33-8.529-8.699c0-5.335,3.84-8.631,8.529-8.631
		c2.753,0,5.777,1.325,6.966,3.976v-3.738h4.622v1.529h-3.059v13.763H648.941z M630.387,721.948c0,4.451,3.161,7.136,7.001,7.136
		c4.553,0,6.897-3.5,6.932-7.067c0.034-3.67-2.31-7.171-7-7.171C633.479,714.846,630.387,717.53,630.387,721.948z"/>
	<path style="fill:#1F293F;" d="M653.696,733.604c-0.068,3.5,3.296,5.132,6.763,5.165c3.364,0.034,6.796-1.358,6.796-4.621
		c0-3.602-3.704-4.621-6.83-4.621c-5.064,0-8.665-2.957-8.665-8.19c0-5.438,4.485-8.189,8.665-8.189
		c1.767,0,3.874,0.543,5.165,1.461l1.733-2.039l1.155,0.884l-1.768,2.106c1.19,1.291,2.311,2.719,2.311,5.777
		c0,2.752-1.665,6.388-5.335,7.271c2.99,0.646,5.199,2.413,5.199,5.505c0,4.146-4.247,6.219-8.461,6.185
		c-4.485-0.034-8.393-2.311-8.258-6.694H653.696z M660.459,728.065c4.247,0,7-3.16,7-6.694c0-4.689-3.534-6.694-7.034-6.694
		c-3.364,0-7.068,2.073-7.068,6.661C653.391,725.89,656.482,728.065,660.459,728.065z"/>
	<path style="fill:#1F293F;" d="M671.501,706.521h4.655v22.258h3.16v1.529h-7.884v-1.529h3.16v-20.763h-3.092V706.521z"/>
	<path style="fill:#1F293F;" d="M685.839,713.487v15.291h3.194v1.529h-7.951v-1.529h3.193v-13.796h-3.092v-1.495H685.839z
		 M683.766,708.016c0-0.883,0.68-1.223,1.326-1.223c0.577,0,1.257,0.34,1.257,1.257c0,0.918-0.68,1.224-1.325,1.224
		C684.445,709.273,683.766,708.968,683.766,708.016z"/>
	<path style="fill:#1F293F;" d="M695.454,728.813h2.923v1.495h-7.578v-1.495h3.059v-13.797h-3.059v-1.495h4.588l0.067,3.467
		c1.428-2.719,3.942-3.738,6.287-3.773c4.689,0,7.271,2.753,7.271,7.442v8.155h3.093v1.495h-7.51v-1.495h2.786v-8.122
		c0-3.941-2.039-5.946-5.709-5.946c-3.5,0.034-6.219,2.685-6.219,6.219V728.813z"/>
	<path style="fill:#1F293F;" d="M729.944,727.317c-1.632,2.141-4.588,3.194-7.272,3.194c-4.69,0-8.529-3.229-8.529-8.598
		c0-5.097,3.636-8.665,8.461-8.665c4.724,0,9.006,2.82,8.359,9.379h-15.19c0.34,4.214,3.433,6.354,6.933,6.354
		c2.209,0,4.825-0.951,6.083-2.616L729.944,727.317z M729.468,721.2c0.068-4.18-2.65-6.456-6.83-6.456
		c-3.602,0-6.49,2.345-6.864,6.456H729.468z"/>
</g>
<polygon style="fill:#414749;" points="609.865,298.16 609.865,373.749 564.236,319.74 564.236,319.381 424.438,384.399 
	424.438,463.464 378.809,405.949 378.809,405.62 239.011,470.637 239.011,572.93 378.809,572.93 378.809,514.681 424.438,572.93 
	424.438,572.919 424.438,572.93 564.236,572.93 564.236,514.681 609.865,570.553 609.865,572.93 749.663,572.93 749.663,233.143 "/>
<g>
	<linearGradient id="SVGID_1_" gradientUnits="userSpaceOnUse" x1="378.8091" y1="489.4396" x2="424.4376" y2="489.4396">
		<stop  offset="0" style="stop-color:#0D1322"/>
		<stop  offset="0.3649" style="stop-color:#18202E"/>
		<stop  offset="1" style="stop-color:#2C3A47"/>
	</linearGradient>
	<polygon style="fill:url(#SVGID_1_);" points="424.438,572.93 378.809,514.681 378.809,405.949 424.438,464.198 	"/>
	
		<linearGradient id="SVGID_00000099639672888664189720000002830003360826446263_" gradientUnits="userSpaceOnUse" x1="564.2359" y1="446.3352" x2="611.8062" y2="446.3352">
		<stop  offset="0" style="stop-color:#0D1322"/>
		<stop  offset="0.3649" style="stop-color:#18202E"/>
		<stop  offset="1" style="stop-color:#2C3A47"/>
	</linearGradient>
	<polygon style="fill:url(#SVGID_00000099639672888664189720000002830003360826446263_);" points="611.806,572.93 564.236,514.681 
		564.236,319.74 611.806,376.048 	"/>
	
		<linearGradient id="SVGID_00000007426005325239515530000003027931297069093544_" gradientUnits="userSpaceOnUse" x1="308.9099" y1="572.9303" x2="308.9099" y2="405.6196">
		<stop  offset="0" style="stop-color:#0D1322"/>
		<stop  offset="1" style="stop-color:#414749"/>
	</linearGradient>
	<polygon style="fill:url(#SVGID_00000007426005325239515530000003027931297069093544_);" points="239.011,470.637 239.011,572.93 
		378.809,572.93 378.809,405.62 	"/>
	
		<linearGradient id="SVGID_00000174596084429781749410000006981752172379466394_" gradientUnits="userSpaceOnUse" x1="494.3369" y1="572.9303" x2="494.3369" y2="319.3812">
		<stop  offset="0" style="stop-color:#0D1322"/>
		<stop  offset="0.2007" style="stop-color:#191F2B"/>
		<stop  offset="0.5975" style="stop-color:#333A3F"/>
		<stop  offset="0.7806" style="stop-color:#414749"/>
	</linearGradient>
	<polygon style="fill:url(#SVGID_00000174596084429781749410000006981752172379466394_);" points="424.438,384.399 424.438,572.93 
		564.236,572.93 564.236,319.381 	"/>
	
		<linearGradient id="SVGID_00000079446588980662883910000016245246812743093386_" gradientUnits="userSpaceOnUse" x1="679.7636" y1="572.9303" x2="679.7636" y2="233.1428">
		<stop  offset="0" style="stop-color:#0D1322"/>
		<stop  offset="0.1121" style="stop-color:#111725"/>
		<stop  offset="0.2619" style="stop-color:#1C232E"/>
		<stop  offset="0.4322" style="stop-color:#2C333A"/>
		<stop  offset="0.5969" style="stop-color:#414749"/>
		<stop  offset="0.6829" style="stop-color:#444A4C"/>
		<stop  offset="0.7605" style="stop-color:#4D5355"/>
		<stop  offset="0.8348" style="stop-color:#5D6264"/>
		<stop  offset="0.9071" style="stop-color:#767B7D"/>
		<stop  offset="0.9774" style="stop-color:#999FA2"/>
		<stop  offset="1" style="stop-color:#A9B0B4"/>
	</linearGradient>
	<polygon style="fill:url(#SVGID_00000079446588980662883910000016245246812743093386_);" points="609.865,298.16 609.865,572.93 
		749.663,572.93 749.663,233.143 	"/>
	<rect x="242.214" y="474.554" style="fill:#414749;" width="0.971" height="95.141"/>
	<rect x="375.411" y="412.116" style="fill:#414749;" width="0.971" height="157.578"/>
	<rect x="427.188" y="388.151" style="fill:#414749;" width="0.971" height="181.544"/>
	<rect x="559.867" y="326.342" style="fill:#414749;" width="0.971" height="243.353"/>
	<rect x="613.909" y="301.748" style="fill:#414749;" width="0.971" height="267.947"/>
	<rect x="745.359" y="240.586" style="fill:#414749;" width="0.971" height="329.108"/>
</g>
</svg>
