<?xml version="1.0" encoding="utf-8"?>
<!-- Generator: Adobe Illustrator 27.5.0, SVG Export Plug-In . SVG Version: 6.00 Build 0)  -->
<svg version="1.1" id="Ñëîé_1" xmlns="http://www.w3.org/2000/svg" xmlns:xlink="http://www.w3.org/1999/xlink" x="0px" y="0px"
	 viewBox="0 0 2000 2000" style="enable-background:new 0 0 2000 2000;" xml:space="preserve">
<rect style="fill:#FFFFFF;" width="2000" height="2000"/>
<path style="fill:#F7F3F7;" d="M1329,317c-255.362-18.394-421.297,3.918-688,12c-132,4-238.158,75.286-300.307,146.739
	c-48.966,56.297-102.441,144.688-119.776,222.104c-25.163,112.378-13.793,223.214,11.288,335.617
	c39.977,179.161,158.197,326.329,291.95,427.136c108.461,81.745,250.051,127.752,378.305,145.061
	c179.5,24.225,530.44,17.212,632.227-7.747c212.205-52.036,302.214-91.04,350.219-265.057
	c50.172-181.872-156.016-367.167-150.015-609.061C1739.88,522.744,1629.276,341,1329,317"/>
<polygon style="fill:#B4C9FF;stroke:#666666;stroke-width:4;stroke-linejoin:round;stroke-miterlimit:10;" points="
	1491.945,1123.813 1491.945,640.097 1352.223,640.097 1352.223,1221.575 "/>
<rect x="461.453" y="640.097" transform="matrix(-1 -1.224647e-16 1.224647e-16 -1 1813.676 1861.672)" style="fill:#B4C9FF;stroke:#666666;stroke-width:4;stroke-linejoin:round;stroke-miterlimit:10;" width="890.771" height="581.477"/>
<polygon style="fill:#CDDBFF;stroke:#666666;stroke-width:4;stroke-linejoin:round;stroke-miterlimit:10;" points="
	1352.223,640.097 461.453,640.097 405.203,768.532 1295.973,768.532 "/>
<polygon style="fill:#CDDBFF;stroke:#666666;stroke-width:4;stroke-linejoin:round;stroke-miterlimit:10;" points="
	1423.826,640.097 1454.592,640.097 1492.054,640.097 1548.304,768.532 1454.592,768.532 1423.826,768.532 1408.285,768.532 
	1352.035,640.097 "/>
<ellipse style="fill:#F7F7F7;" cx="731.715" cy="988.12" rx="19.505" ry="22.434"/>
<ellipse style="fill:#F7F7F7;" cx="1081.961" cy="988.12" rx="19.505" ry="22.434"/>
<path style="fill:#444B60;" d="M851.689,1092.414c0,13.139,24.691,4.285,55.149,4.285c30.458,0,55.148,8.854,55.148-4.285
	c0-13.139-24.691-23.79-55.148-23.79C876.38,1068.625,851.689,1079.276,851.689,1092.414z"/>
<path style="fill:none;stroke:#666666;stroke-width:4;stroke-linejoin:round;stroke-miterlimit:10;" d="M991,1221.575
	c-3.123,80.425,17.837,136.504,42.616,197.983"/>
<path style="fill:none;stroke:#666666;stroke-width:4;stroke-linejoin:round;stroke-miterlimit:10;" d="M847.014,1222.046
	c-21.363,4.326-40.944,16.912-53.751,34.55c-7.108,9.79-11.525,21.555-11.532,33.653C781.715,1320.566,806,1349,822,1358"/>
<path style="fill:none;stroke:#666666;stroke-width:4;stroke-linejoin:round;stroke-miterlimit:10;" d="M1407.996,987.944
	c22.843,72.691,73.405,136.294,139.072,174.94"/>
<ellipse transform="matrix(0.7071 -0.7071 0.7071 0.7071 -481.3235 1604.4038)" style="fill:#FFFFFF;stroke:#666666;stroke-width:4;stroke-linejoin:round;stroke-miterlimit:10;" cx="1696.025" cy="1383.211" rx="88.329" ry="88.329"/>
<ellipse transform="matrix(0.7071 -0.7071 0.7071 0.7071 -481.3235 1604.4038)" style="fill:#F7F3F7;stroke:#666666;stroke-width:4;stroke-linejoin:round;stroke-miterlimit:10;" cx="1696.025" cy="1383.211" rx="66.738" ry="66.738"/>
<rect x="1586.753" y="1116.117" transform="matrix(-0.8669 0.4985 -0.4985 -0.8669 3595.9758 1475.7341)" style="fill:#FFFFFF;stroke:#666666;stroke-width:4;stroke-linejoin:round;stroke-miterlimit:10;" width="28.462" height="203.592"/>
<path style="fill:#FFFFFF;stroke:#666666;stroke-width:4;stroke-linejoin:round;stroke-miterlimit:10;" d="M1539.348,1135.929
	l21.791-12.529c3.344-1.923,7.614-0.771,9.536,2.573l58.223,101.263c1.923,3.344,0.771,7.614-2.574,9.536l-21.791,12.529
	c-3.344,1.923-7.614,0.771-9.536-2.574l-58.223-101.263C1534.852,1142.121,1536.004,1137.852,1539.348,1135.929z"/>
<path style="fill:none;stroke:#444B60;stroke-width:4;stroke-linecap:round;stroke-miterlimit:10;" d="M764.36,894.75
	c15.494,15.153,40.294,14.878,55.448-0.617"/>
<path style="fill:none;stroke:#444B60;stroke-width:4;stroke-linecap:round;stroke-miterlimit:10;" d="M876.125,894.75
	c15.494,15.153,40.294,14.878,55.448-0.617"/>
<path style="fill:none;stroke:#666666;stroke-width:4;stroke-linejoin:round;stroke-miterlimit:10;" d="M459.247,1039.491
	c-48.422,71.607-54.723,169.61-15.871,246.829"/>
</svg>
