<svg id="Layer_1" enable-background="new 0 0 64 64" viewBox="0 0 64 64" xmlns="http://www.w3.org/2000/svg"><path d="m59 51c0 2.2-1.8 4-4 4h-46c-2.2 0-4-1.8-4-4v-27c0-2.2 1.8-4 4-4h46c2.2 0 4 1.8 4 4z" fill="#ffd766"/><g style="fill:none;stroke:#2c3e50;stroke-linecap:round;stroke-linejoin:round;stroke-miterlimit:10;stroke-width:2"><path d="m51 20h4c2.2 0 4 1.8 4 4v27c0 2.2-1.8 4-4 4h-46c-2.2 0-4-1.8-4-4v-27c0-2.2 1.8-4 4-4h5"/><path d="m23.5 20h19.2"/><path d="m15 35.6c0 1.4-1.1 2.5-2.5 2.5s-2.5-1.2-2.5-2.5v-3.3c0-1.4 1.1-2.5 2.5-2.5s2.5 1.1 2.5 2.5"/><path d="m50 35.6c0 1.4-1.1 2.5-2.5 2.5s-2.5-1.2-2.5-2.5v-3.3c0-1.4 1.1-2.5 2.5-2.5s2.5 1.1 2.5 2.5"/><path d="m23 35.6c0 1.4-1.1 2.5-2.5 2.5s-2.5-1.2-2.5-2.5v-3.3c0-1.4 1.1-2.5 2.5-2.5s2.5 1.1 2.5 2.5z"/><path d="m26 38v-8.1l4 8.1v-8"/><path d="m35 38v-8"/><path d="m33 30h4"/><path d="m54 38v-8"/><path d="m52 30h4"/><path d="m37.8 37.9 2.5-8 2.4 8"/><path d="m38.6 35.5h3.3"/><path d="m40.4 45.3c0-1.4-1.1-2.5-2.4-2.5-1.4 0-2.4 1.1-2.4 2.5 0 .9 4.8 2 4.8 3.3 0 1.4-1.1 2.5-2.4 2.5-1.4 0-2.4-1.1-2.4-2.5"/><path d="m33 43v5.6c0 1.4-1.1 2.5-2.5 2.5s-2.5-1.2-2.5-2.5v-5.6"/><path d="m16 23 16.7-16h.3l16.7 16"/><circle cx="16" cy="23.7" r="1"/><circle cx="50" cy="23.7" r="1"/></g></svg>