<svg id="final" enable-background="new 0 0 100 100" viewBox="0 0 100 100" xmlns="http://www.w3.org/2000/svg"><g><path d="m90 54h-4v-34c0-.553-.447-1-1-1h-9v-3h1.5c.553 0 1-.447 1-1s-.447-1-1-1h-1.5v-3h1.5c.553 0 1-.447 1-1s-.447-1-1-1h-5c-.553 0-1 .447-1 1s.447 1 1 1h1.5v3h-1.5c-.553 0-1 .447-1 1s.447 1 1 1h1.5v3h-8v-9c.001-.26-.109-.525-.294-.708l-4.999-4.999c-.187-.188-.441-.293-.707-.293h-20c-.266 0-.52.105-.707.293l-4.999 4.999c-.185.182-.295.447-.294.708v9h-8v-3.603c1.441-.434 2.5-1.757 2.5-3.337 0-1.93-1.57-3.5-3.5-3.5s-3.5 1.57-3.5 3.5c0 1.58 1.059 2.903 2.5 3.337v3.603h-9c-.553 0-1 .447-1 1v34h-4c-.553 0-1 .447-1 1 0 22.607 18.393 41 41 41s41-18.393 41-41c0-.553-.447-1-1-1zm-24-33h18v33h-18zm-25.586-15h19.172l3 3h-25.172zm-4.414 5h28v43h-5.5v-9c0-.553-.447-1-1-1h-15c-.553 0-1 .447-1 1v9h-5.5zm16.5 38h-1.5v-3h5.5v8h-5.5v-3h1.5c.553 0 1-.447 1-1s-.447-1-1-1zm-5 2h1.5v3h-5.5v-8h5.5v3h-1.5c-.553 0-1 .447-1 1s.447 1 1 1zm-24-38.94c0-.827.673-1.5 1.5-1.5s1.5.673 1.5 1.5-.673 1.5-1.5 1.5-1.5-.673-1.5-1.5zm-7.5 8.94h18v33h-18zm34 73c-21.17 0-38.454-16.956-38.987-38h77.975c-.534 21.044-17.818 38-38.988 38z"/><path d="m30.149 58.859h.061c.55-.029.97-.51.939-1.06-.04-.55-.51-.97-1.06-.94-.55.04-.97.511-.94 1.061.031.529.471.939 1 .939z"/><path d="m30.39 60.85c-.56.06-.95.56-.89 1.11.06.51.49.89 1 .89.03 0 .069-.01.109-.01.548-.06.935-.556.88-1.103-.061-.558-.55-.947-1.099-.887z"/><path d="m68.149 70.31c.07.01.141.021.21.021.46 0 .881-.32.98-.79.11-.54-.23-1.07-.771-1.19-.539-.12-1.069.23-1.189.771-.109.527.23 1.067.77 1.188z"/><path d="m31.49 61.729v.008.002z"/><path d="m57.689 91.38c.221 0 .45-.08.641-.23.42-.35.479-.99.12-1.41-.351-.42-.98-.479-1.41-.13-.42.351-.48.98-.12 1.41.189.24.479.36.769.36z"/><path d="m30.069 65.979c0-.003.001-.006 0-.009v-.001z"/><path d="m69.5 62.42c.03.01.069.01.1.01.51 0 .94-.39 1-.9.05-.55-.35-1.04-.899-1.1-.551-.05-1.04.35-1.101.9-.05.55.35 1.04.9 1.09z"/><path d="m69.85 58.439h.05c.53 0 .971-.42 1-.95.03-.55-.399-1.02-.949-1.05-.551-.03-1.021.4-1.051.95s.4 1.02.95 1.05z"/><path d="m68.939 66.38c.051.01.101.02.15.02.49 0 .91-.359.99-.85.08-.55-.29-1.061-.84-1.141-.54-.09-1.051.29-1.141.83-.078.54.292 1.061.841 1.141z"/><path d="m63.72 80.29c-.229.5-.01 1.09.49 1.33.14.06.28.09.42.09.38 0 .74-.21.91-.58.229-.5.01-1.09-.49-1.32-.5-.241-1.09-.02-1.33.48z"/><path d="m45.6 92.01c-.189.53.09 1.09.61 1.28.109.029.22.05.33.05.41 0 .8-.26.939-.67.19-.521-.09-1.09-.609-1.271-.52-.179-1.09.09-1.27.611z"/><path d="m65.81 77.949c.12.04.23.061.351.061.409 0 .79-.25.939-.65.19-.52-.08-1.1-.6-1.279-.521-.19-1.09.069-1.28.59-.19.518.08 1.089.59 1.278z"/><path d="m62.24 85.1c.159.1.34.14.52.14.34 0 .67-.17.86-.479.279-.47.13-1.09-.351-1.37-.47-.29-1.08-.14-1.37.34-.279.468-.129 1.079.341 1.369z"/><path d="m59.7 86.89c-.351.43-.29 1.06.14 1.41.19.149.41.22.63.22.29 0 .58-.12.78-.37.35-.43.28-1.06-.15-1.399-.43-.352-1.06-.291-1.4.139z"/><path d="m30.07 65.971c.081.49.511.839.99.839.05 0 .11-.01.16-.02.55-.091.91-.601.82-1.15s-.61-.91-1.15-.82c-.537.089-.905.604-.82 1.151z"/><path d="m54.319 93.5c.131 0 .271-.021.4-.08.51-.221.74-.811.51-1.32-.22-.51-.81-.729-1.319-.51-.5.22-.73.81-.511 1.319.17.37.54.591.92.591z"/><path d="m42.439 91.25c.181.14.391.199.601.199.3 0 .609-.14.8-.399.33-.45.24-1.07-.2-1.4-.45-.33-1.07-.24-1.399.2-.331.45-.241 1.07.198 1.4z"/><path d="m33.229 77.739c.16.4.54.641.94.641.12 0 .24-.021.36-.07.51-.2.77-.78.569-1.29-.2-.52-.78-.77-1.3-.57-.508.199-.768.779-.569 1.289z"/><path d="m31.91 73.88c.13.439.529.72.96.72.09 0 .189-.02.29-.05.529-.16.83-.72.67-1.24-.16-.53-.721-.83-1.25-.67-.53.16-.83.719-.67 1.24z"/><path d="m31.62 68.76c-.54.12-.88.66-.75 1.2.1.46.51.77.97.77.07 0 .15-.01.229-.03.53-.119.87-.659.75-1.199h-.01c-.12-.531-.66-.871-1.189-.741z"/><path d="m67.12 74.17c.09.029.18.04.27.04.43 0 .84-.29.96-.73.15-.53-.16-1.08-.689-1.229-.53-.15-1.08.149-1.23.689v-.01c-.151.54.149 1.09.689 1.24z"/><path d="m40.12 88.729c.239 0 .47-.08.66-.25.42-.359.46-1 .09-1.41-.36-.42-.99-.46-1.41-.09-.41.36-.45.99-.09 1.41.199.22.47.34.75.34z"/><path d="m34.87 81.489c.18.351.529.551.899.551.15 0 .3-.03.44-.101.49-.25.7-.84.45-1.34-.24-.49-.841-.7-1.33-.45-.499.241-.699.84-.459 1.34z"/><path d="m37.189 83.689c-.47.29-.6.91-.3 1.38.19.301.51.46.84.46.181 0 .37-.05.54-.159.46-.301.601-.921.3-1.381-.299-.469-.92-.599-1.38-.3z"/><path d="m63.91 75.02c.06 0 .109-.011.159-.021.551-.08.921-.6.83-1.14-.09-.55-.6-.92-1.149-.83-.54.09-.91.6-.82 1.15.08.491.5.841.98.841z"/><path d="m54.899 73.879.007.001.004-.001z"/><path d="m54.96 75.879h.06c0-.01 0-.01 0-.01.55-.03.971-.5.94-1.05-.03-.547-.496-.965-1.054-.939-.558.032-.977.5-.946 1.05.03.53.47.949 1 .949z"/><path d="m59.45 75.549h.1.01c.54-.06.94-.56.88-1.109-.06-.55-.55-.94-1.1-.88s-.95.55-.89 1.1c.06.51.489.889 1 .889z"/><path d="m45.92 75.92h.04c.53 0 .979-.42 1-.95.02-.56-.4-1.02-.95-1.05-.56-.02-1.03.41-1.05.96-.021.55.41 1.02.96 1.04z"/><path d="m50.46 76h.01c.55-.01 1-.46.99-1.01 0-.55-.45-1-1-.99-.561 0-1 .45-1 1s.45 1 1 1z"/><path d="m80.2 69.02c.18 0 .359-.051.529-.15.46-.3.61-.91.32-1.38s-.91-.62-1.38-.32c-.47.29-.61.91-.32 1.37.191.31.521.48.851.48z"/><path d="m86.229 63.83c.301 0 .59-.13.79-.39.34-.431.261-1.061-.17-1.4-.43-.34-1.06-.27-1.399.17-.351.431-.271 1.061.159 1.4.191.14.401.22.62.22z"/><path d="m41.38 75.64c.03 0 .06.01.09.01.51 0 .95-.391 1-.91.05-.55-.35-1.04-.9-1.09s-1.039.35-1.09.899c-.06.551.35 1.04.9 1.091z"/><path d="m76.689 70.93c.15 0 .29-.03.431-.101.5-.24.71-.83.47-1.33s-.84-.71-1.33-.47c-.5.24-.71.84-.47 1.33.17.36.529.571.899.571z"/><path d="m73.01 72.5c.12 0 .23-.02.35-.069.521-.19.78-.771.58-1.28-.189-.521-.77-.78-1.279-.59-.521.189-.78.77-.591 1.29.15.399.53.649.94.649z"/><path d="m36.85 75.15c.05.01.101.01.15.01.49 0 .91-.36.99-.85.079-.551-.301-1.061-.841-1.141-.55-.08-1.06.3-1.14.84-.079.551.291 1.061.841 1.141z"/><path d="m83.439 66.68c.23 0 .46-.08.641-.24.42-.351.479-.99.12-1.41-.36-.42-.99-.47-1.41-.12-.42.36-.471.99-.12 1.41.2.24.479.36.769.36z"/><path d="m20.09 69.36c.16.09.33.13.5.13.35 0 .68-.17.87-.49.27-.479.109-1.09-.36-1.37-.479-.279-1.09-.12-1.37.36-.28.47-.121 1.09.36 1.37z"/><path d="m17.28 67.259c.289 0 .59-.13.779-.38.34-.439.271-1.069-.17-1.41-.43-.34-1.06-.26-1.399.171-.341.439-.261 1.069.17 1.409.18.141.4.21.62.21z"/><path d="m13.609 64.2c.2.22.471.34.75.34.23 0 .471-.09.66-.25.41-.37.46-1 .09-1.41-.359-.42-.989-.46-1.409-.1-.42.37-.46 1-.091 1.42z"/><path d="m27.53 72.759c-.011 0-.011 0-.011 0 .11.04.23.051.34.051.41 0 .801-.25.94-.66.18-.521-.09-1.09-.61-1.28-.52-.18-1.09.09-1.27.61-.19.52.081 1.09.611 1.279z"/><path d="m23.729 71.23h.011c.13.069.27.09.409.09.381 0 .74-.22.91-.59.23-.5 0-1.09-.5-1.32-.5-.229-1.1 0-1.319.5-.23.5-.011 1.09.489 1.32z"/><path d="m30 24h-10c-.553 0-1 .447-1 1v5c0 .553.447 1 1 1h10c.553 0 1-.447 1-1v-5c0-.553-.447-1-1-1zm-6 5h-3v-3h3zm5 0h-3v-3h3z"/><path d="m30 34h-10c-.553 0-1 .447-1 1v5c0 .553.447 1 1 1h10c.553 0 1-.447 1-1v-5c0-.553-.447-1-1-1zm-6 5h-3v-3h3zm5 0h-3v-3h3z"/><path d="m30 44h-10c-.553 0-1 .447-1 1v5c0 .553.447 1 1 1h10c.553 0 1-.447 1-1v-5c0-.553-.447-1-1-1zm-6 5h-3v-3h3zm5 0h-3v-3h3z"/><path d="m80 24h-10c-.553 0-1 .447-1 1v5c0 .553.447 1 1 1h10c.553 0 1-.447 1-1v-5c0-.553-.447-1-1-1zm-6 5h-3v-3h3zm5 0h-3v-3h3z"/><path d="m42.5 21h15c.553 0 1-.447 1-1v-5c0-.553-.447-1-1-1h-15c-.553 0-1 .447-1 1v5c0 .552.447 1 1 1zm1-5h13v3h-13z"/><path d="m42.5 31h15c.553 0 1-.447 1-1v-5c0-.553-.447-1-1-1h-15c-.553 0-1 .447-1 1v5c0 .552.447 1 1 1zm1-5h13v3h-13z"/><path d="m42.5 41h15c.553 0 1-.447 1-1v-5c0-.553-.447-1-1-1h-15c-.553 0-1 .447-1 1v5c0 .552.447 1 1 1zm1-5h13v3h-13z"/><path d="m80 34h-10c-.553 0-1 .447-1 1v5c0 .553.447 1 1 1h10c.553 0 1-.447 1-1v-5c0-.553-.447-1-1-1zm-6 5h-3v-3h3zm5 0h-3v-3h3z"/><path d="m80 44h-10c-.553 0-1 .447-1 1v5c0 .553.447 1 1 1h10c.553 0 1-.447 1-1v-5c0-.553-.447-1-1-1zm-6 5h-3v-3h3zm5 0h-3v-3h3z"/></g></svg>