<svg height="512" viewBox="0 0 128 128" width="512" xmlns="http://www.w3.org/2000/svg"><g id="Filled_outline" data-name="Filled outline"><g id="Color"><circle cx="64" cy="30" fill="#e0e0e0" r="28.5"/><g fill="#ffc107"><path d="m66.312 12.779 5.626 6.805 8.211 3.248a3 3 0 0 1 1.429 4.4l-4.734 7.453-.551 8.815a3 3 0 0 1 -3.742 2.719l-8.551-2.204-8.551 2.2a3 3 0 0 1 -3.742-2.715l-.551-8.812-4.734-7.458a3 3 0 0 1 1.429-4.4l8.211-3.248 5.626-6.8a3 3 0 0 1 4.624-.003z"/><path d="m107.707 11.05-5.657 5.657a3 3 0 0 0 4.243 4.243l5.657-5.657a3 3 0 0 0 -4.243-4.243z"/><path d="m107.707 46.95-5.657-5.657a3 3 0 0 1 4.243-4.243l5.657 5.657a3 3 0 0 1 -4.243 4.243z"/><path d="m20.293 11.05 5.657 5.657a3 3 0 0 1 -4.243 4.243l-5.657-5.657a3 3 0 0 1 4.243-4.243z"/><path d="m20.293 46.95 5.657-5.657a3 3 0 1 0 -4.243-4.243l-5.657 5.657a3 3 0 1 0 4.243 4.243z"/><path d="m13 69.5v48a9 9 0 0 0 9 9h84a9 9 0 0 0 9-9v-48a3 3 0 0 0 -3-3h-96a3 3 0 0 0 -3 3z"/></g><path d="m80 66.5v60h26a9 9 0 0 0 9-9v-48a3 3 0 0 0 -3-3z" fill="#ffb300"/><path d="m2.818 78.565 8.382-9.935a6 6 0 0 1 4.585-2.13h64.215l-11.65 13.805a9 9 0 0 1 -6.878 3.195h-56.362a3 3 0 0 1 -2.292-4.935z" fill="#ffd54f"/><path d="m125.182 78.565-8.382-9.935a6 6 0 0 0 -4.585-2.13h-32.215l11.65 13.805a9 9 0 0 0 6.878 3.195h24.362a3 3 0 0 0 2.292-4.935z" fill="#ffc107"/><rect fill="#fff" height="8" rx="1.5" width="16" x="22" y="109.5"/></g><g id="Outline"><path d="m94 30a30 30 0 1 0 -30 30 30.034 30.034 0 0 0 30-30zm-57 0a27 27 0 1 1 27 27 27.03 27.03 0 0 1 -27-27z"/><path d="m72.179 47.667a4.5 4.5 0 0 0 5.611-4.078l.526-8.427 4.527-7.128a4.5 4.5 0 0 0 -2.143-6.6l-7.852-3.107-5.379-6.508a4.5 4.5 0 0 0 -6.938 0l-5.379 6.508-7.852 3.111a4.5 4.5 0 0 0 -2.144 6.6l4.528 7.129.526 8.427a4.5 4.5 0 0 0 5.612 4.078l8.178-2.109zm-17.1-2.906a1.5 1.5 0 0 1 -1.879-1.361l-.551-8.811a1.484 1.484 0 0 0 -.23-.71l-4.735-7.455a1.5 1.5 0 0 1 .715-2.2l8.211-3.248a1.5 1.5 0 0 0 .605-.439l5.625-6.8a1.5 1.5 0 0 1 2.312 0l5.625 6.805a1.5 1.5 0 0 0 .6.439l8.223 3.246a1.5 1.5 0 0 1 .714 2.2l-4.737 7.453a1.484 1.484 0 0 0 -.23.71l-.547 8.81a1.5 1.5 0 0 1 -1.87 1.36l-8.552-2.2a1.5 1.5 0 0 0 -.748 0z"/><path d="m107.354 22.011 5.658-5.657a4.5 4.5 0 0 0 -6.366-6.366l-5.658 5.657a4.5 4.5 0 1 0 6.366 6.365zm-4.244-4.243 5.658-5.657a1.5 1.5 0 1 1 2.122 2.121l-5.658 5.657a1.5 1.5 0 1 1 -2.122-2.121z"/><path d="m100.989 42.354 5.657 5.657a4.5 4.5 0 1 0 6.365-6.365l-5.657-5.658a4.5 4.5 0 1 0 -6.365 6.366zm2.121-4.243a1.5 1.5 0 0 1 2.122 0l5.657 5.658a1.5 1.5 0 1 1 -2.121 2.121l-5.657-5.657a1.5 1.5 0 0 1 -.001-2.122z"/><path d="m14.988 9.989a4.508 4.508 0 0 0 0 6.365l5.657 5.658a4.5 4.5 0 1 0 6.365-6.366l-5.656-5.657a4.51 4.51 0 0 0 -6.366 0zm9.9 7.779a1.5 1.5 0 1 1 -2.121 2.122l-5.657-5.658a1.5 1.5 0 0 1 2.121-2.121z"/><path d="m14.989 48.012a4.509 4.509 0 0 0 6.365 0l5.658-5.657a4.5 4.5 0 1 0 -6.366-6.365l-5.658 5.657a4.509 4.509 0 0 0 .001 6.365zm2.121-4.244 5.658-5.657a1.5 1.5 0 1 1 2.122 2.121l-5.658 5.657a1.5 1.5 0 1 1 -2.122-2.121z"/><path d="m10.056 67.662-8.385 9.938a4.5 4.5 0 0 0 3.439 7.4h6.39v32.5a10.512 10.512 0 0 0 10.5 10.5h84a10.512 10.512 0 0 0 10.5-10.5v-32.5h6.39a4.5 4.5 0 0 0 3.439-7.4l-8.385-9.936a7.484 7.484 0 0 0 -5.731-2.664h-96.426a7.484 7.484 0 0 0 -5.731 2.662zm102.157.338a4.485 4.485 0 0 1 3.438 1.6l8.385 9.935a1.5 1.5 0 0 1 -1.146 2.465h-24.362a7.484 7.484 0 0 1 -5.728-2.663l-9.571-11.337zm-30.713 2.6 9 10.668a10.475 10.475 0 0 0 8.028 3.732h14.972v32.5a7.508 7.508 0 0 1 -7.5 7.5h-24.5zm-3 54.4h-56.5a7.508 7.508 0 0 1 -7.5-7.5v-32.5h46.972a10.475 10.475 0 0 0 8.028-3.728l9-10.668zm-62.713-57h60.984l-9.571 11.337a7.484 7.484 0 0 1 -5.728 2.663h-56.362a1.5 1.5 0 0 1 -1.146-2.467l8.385-9.933a4.485 4.485 0 0 1 3.438-1.6z"/><path d="m71.5 115.5h-9a1.5 1.5 0 0 0 0 3h9a1.5 1.5 0 0 0 0-3z"/><path d="m61 109a1.5 1.5 0 0 0 1.5 1.5h9a1.5 1.5 0 0 0 0-3h-9a1.5 1.5 0 0 0 -1.5 1.5z"/><path d="m36.5 108h-13a3 3 0 0 0 -3 3v5a3 3 0 0 0 3 3h13a3 3 0 0 0 3-3v-5a3 3 0 0 0 -3-3zm-13 8v-5h13v5z"/></g></g></svg>