<svg id="Layer_1" enable-background="new 0 0 512 512" viewBox="0 0 512 512" xmlns="http://www.w3.org/2000/svg"><g><path clip-rule="evenodd" d="m59.5 40.74h283.36c2.59 0 4.7 2.1 4.7 4.7v422.61c0 2.59-2.1 4.7-4.7 4.7h-283.36c-2.59 0-4.7-2.1-4.7-4.7v-422.61c0-2.6 2.1-4.7 4.7-4.7z" fill="#e4dbd2" fill-rule="evenodd"/><path clip-rule="evenodd" d="m137.3 344.41c14.43 0 27.5 5.85 36.96 15.31s15.31 22.53 15.31 36.96-5.85 27.5-15.31 36.96-22.53 15.31-36.96 15.31-27.5-5.85-36.96-15.31-15.31-22.53-15.31-36.96 5.85-27.5 15.31-36.96 22.53-15.31 36.96-15.31z" fill="#ec7a08" fill-rule="evenodd"/><path clip-rule="evenodd" d="m110.15 387.47c-2.59 0-4.7-2.1-4.7-4.7 0-2.59 2.1-4.7 4.7-4.7h11.51c2.59 0 4.7 2.1 4.7 4.7 0 2.59-2.1 4.7-4.7 4.7z" fill="#fefefe" fill-rule="evenodd"/><path clip-rule="evenodd" d="m152.94 387.47c-2.59 0-4.7-2.1-4.7-4.7 0-2.59 2.1-4.7 4.7-4.7h11.51c2.59 0 4.7 2.1 4.7 4.7 0 2.59-2.1 4.7-4.7 4.7z" fill="#fefefe" fill-rule="evenodd"/><path clip-rule="evenodd" d="m157.76 415.56c0 2.59-2.1 4.7-4.7 4.7-2.59 0-4.7-2.1-4.7-4.7 0-1.73-1.05-3.38-2.75-4.66-2.07-1.56-5.01-2.53-8.32-2.53s-6.25.97-8.32 2.53c-1.7 1.28-2.75 2.94-2.75 4.66 0 2.59-2.1 4.7-4.7 4.7-2.59 0-4.7-2.1-4.7-4.7 0-4.84 2.48-9.13 6.49-12.15 3.63-2.74 8.58-4.44 13.97-4.44s10.34 1.7 13.97 4.44c4.03 3.02 6.51 7.31 6.51 12.15z" fill="#fefefe" fill-rule="evenodd"/><path d="m158.57 397.6c0-2.59 2.1-4.7 4.7-4.7 2.59 0 4.7 2.1 4.7 4.7v1.67c0 2.59-2.1 4.7-4.7 4.7-2.59 0-4.7-2.1-4.7-4.7z" fill="#fefefe"/><g clip-rule="evenodd" fill-rule="evenodd"><path d="m127.03 78.49c-2.59 0-4.7-2.1-4.7-4.7 0-2.59 2.1-4.7 4.7-4.7h148.3c2.59 0 4.7 2.1 4.7 4.7 0 2.59-2.1 4.7-4.7 4.7z" fill="#3b566a"/><path d="m89.72 119.3c-2.59 0-4.7-2.1-4.7-4.7s2.1-4.7 4.7-4.7h222.91c2.59 0 4.7 2.1 4.7 4.7s-2.1 4.7-4.7 4.7z" fill="#3b566a"/><path d="m89.72 160.12c-2.59 0-4.7-2.1-4.7-4.7 0-2.59 2.1-4.7 4.7-4.7h222.91c2.59 0 4.7 2.1 4.7 4.7 0 2.59-2.1 4.7-4.7 4.7z" fill="#3b566a"/><path d="m89.72 200.93c-2.59 0-4.7-2.1-4.7-4.7 0-2.59 2.1-4.7 4.7-4.7h222.91c2.59 0 4.7 2.1 4.7 4.7 0 2.59-2.1 4.7-4.7 4.7z" fill="#3b566a"/><path d="m89.72 241.74c-2.59 0-4.7-2.1-4.7-4.7 0-2.59 2.1-4.7 4.7-4.7h222.91c2.59 0 4.7 2.1 4.7 4.7 0 2.59-2.1 4.7-4.7 4.7z" fill="#3b566a"/><path d="m89.72 282.55c-2.59 0-4.7-2.1-4.7-4.7 0-2.59 2.1-4.7 4.7-4.7h222.91c2.59 0 4.7 2.1 4.7 4.7 0 2.59-2.1 4.7-4.7 4.7z" fill="#3b566a"/><path d="m89.72 323.36c-2.59 0-4.7-2.1-4.7-4.7 0-2.59 2.1-4.7 4.7-4.7h222.91c2.59 0 4.7 2.1 4.7 4.7 0 2.59-2.1 4.7-4.7 4.7z" fill="#3b566a"/><path d="m457.72 391.67-42.25 78.63c-.43.77-1.07 1.42-1.91 1.86-2.29 1.21-5.12.33-6.33-1.96l-38.52-78.53z" fill="#db9e82"/><path d="m438.62 427.22-23.15 43.08c-.43.77-1.07 1.42-1.91 1.86-2.29 1.21-5.12.33-6.33-1.96l-20.67-42.14c7.59-5.19 16.77-8.22 26.65-8.22 9.36-.01 18.07 2.7 25.41 7.38z" fill="#3b566a"/><path d="m428.68 445.71-13.21 24.59c-.43.77-1.07 1.42-1.91 1.86-2.29 1.21-5.12.33-6.33-1.96l-6.37-12.98c5.35-7.17 13.9-11.82 23.53-11.82 1.47 0 2.89.11 4.29.31z" fill="#3b4b58"/><path d="m226.76 420.7c-2.59 0-4.7-2.1-4.7-4.7 0-2.59 2.1-4.7 4.7-4.7h44.04c2.59 0 4.7 2.1 4.7 4.7 0 2.59-2.1 4.7-4.7 4.7z" fill="#3b566a"/><path d="m226.76 448.95c-2.59 0-4.7-2.1-4.7-4.7 0-2.59 2.1-4.7 4.7-4.7h85.87c2.59 0 4.7 2.1 4.7 4.7 0 2.59-2.1 4.7-4.7 4.7z" fill="#3b566a"/><path d="m368.72 85.99h89v305.68h-89z" fill="#ffc107"/><path d="m368.72 88.94v-43.48c0-2.59 2.1-4.7 4.7-4.7h79.61c2.59 0 4.7 2.1 4.7 4.7v43.48z" fill="#ef5350"/><path d="m399.92 134.8h26.59c2.59 0 4.7 2.1 4.7 4.7v206.32c0 2.59-2.1 4.7-4.7 4.7h-26.59c-2.59 0-4.7-2.1-4.7-4.7v-206.33c.01-2.59 2.11-4.69 4.7-4.69z" fill="#fa9a14"/></g></g></svg>